<?xml version="1.0" encoding="utf-8"?>
<!-- Generator: Adobe Illustrator 27.4.1, SVG Export Plug-In . SVG Version: 6.00 Build 0)  -->
<svg version="1.1" id="Capa_1" xmlns="http://www.w3.org/2000/svg" xmlns:xlink="http://www.w3.org/1999/xlink" x="0px" y="0px"
	 viewBox="0 0 400 220" style="enable-background:new 0 0 400 220;" xml:space="preserve">
<style type="text/css">
	.st0{fill:#E5B748;}
	.st1{fill:#18528E;}
	.st2{fill:#C03047;}
	.st3{fill:#050006;}
</style>
<rect x="1" y="152.87949" class="st0" width="398" height="65.60439"/>
<path class="st1" d="M9.71482,0.76611h55.97285v18.5775H32.06571v8.2675h31.2348v16.90472h-31.2348v21.27209H9.71482V0.76611z"/>
<path class="st1" d="M70.95061,0.76611h32.66686c11.84483,0,19.38997,2.87945,24.07099,7.43055
	c4.01163,3.90126,6.11309,8.73135,6.11309,15.4202v0.18486c0,9.47531-5.06236,16.07003-13.18127,19.8783l15.56843,22.10791
	h-25.50307l-12.60751-18.5775H93.3015v18.5775H70.95061V0.76611z M102.94926,31.69724c5.34924,0,8.59587-2.32148,8.59587-6.31574
	v-0.18599c0-4.18025-3.34225-6.22388-8.50024-6.22388H93.3015v12.7256H102.94926z"/>
<path class="st1" d="M139.25575,0.76611h57.02357v17.83467H161.2253v6.59472h32.66687v15.69805H161.2253v7.0597h35.53217v17.83467
	h-57.50171V0.76611z"/>
<path class="st1" d="M202.7854,0.76611h20.91884l23.78294,28.70264V0.76611h22.1608v65.02181h-19.8681l-24.83366-30.00344v30.00344
	H202.7854V0.76611z"/>
<path class="st1" d="M294.39771,19.15762h-19.67569V0.76611h61.70343v18.39151h-19.67569v46.6303h-22.35205V19.15762z"/>
<path class="st1" d="M341.49829,0.76611h57.02359v17.83467h-35.05405v6.59472h32.66687v15.69805h-32.66687v7.0597H399v17.83467
	h-57.50171V0.76611z"/>
<path class="st2" d="M33.0101,76.2044h22.4488l28.54327,65.48679H59.4258l-3.58061-8.73135H32.13946l-3.48256,8.73135H4.46683
	L33.0101,76.2044z M50.23388,117.53965l-6.19253-15.79105l-6.19253,15.79105H50.23388z"/>
<path class="st2" d="M86.81963,76.66937h23.60886l14.5138,22.85075l14.51382-22.85075h23.60886v65.02182h-22.54448v-32.23193
	l-15.57819,23.12859h-0.38629l-15.57819-23.12859v32.23193H86.81963V76.66937z"/>
<path class="st2" d="M170.81921,76.66937h30.47948c17.99635,0,30.28455,7.70953,30.28455,23.1286v0.18599
	c0,15.69805-12.48192,24.05855-30.76889,24.05855h-7.35378v17.64868h-22.64136V76.66937z M199.55623,108.52932
	c5.80623,0,9.67625-2.50747,9.67625-7.15157v-0.18599c0-4.73708-3.57942-7.15269-9.57939-7.15269h-6.19252v14.49025H199.55623z"/>
<path class="st2" d="M236.43141,76.66937h22.64134v46.44432h31.83328v18.5775h-54.47462V76.66937z"/>
<path class="st2" d="M296.0448,76.66937h22.64136v65.02182H296.0448V76.66937z"/>
<path class="st2" d="M325.07715,109.36627v-0.18599c0-18.85648,16.15823-33.9047,37.05829-33.9047
	C383.03552,75.27558,399,90.13781,399,108.99429v0.18599c0,18.85649-16.1582,33.90471-37.05829,33.90471
	S325.07715,128.22276,325.07715,109.36627z M376.16492,109.36627v-0.18599c0-7.70953-5.51447-14.67624-14.22321-14.67624
	c-8.61188,0-14.02948,6.87371-14.02948,14.49025v0.18599c0,7.70953,5.51447,14.67624,14.22321,14.67624
	C370.74615,123.85652,376.16492,116.98281,376.16492,109.36627z"/>
<path class="st3" d="M25.80243,167.17474h14.43039c8.7017,0,14.43039,4.23134,14.43039,11.18417v0.10138
	c0,7.60736-6.94027,11.53752-15.14701,11.53752h-9.36345v12.44402h-4.35031V167.17474z M39.6819,186.36983
	c6.38935,0,10.57504-3.12306,10.57504-7.75894v-0.1004c0-5.03844-4.13081-7.65854-10.35446-7.65854h-9.74974v15.51788H39.6819z"/>
<path class="st3" d="M60.89655,184.90918v-0.10138c0-9.72353,7.98615-18.23837,19.7179-18.23837s19.60816,8.41444,19.60816,18.13797
	v0.1004c0,9.7245-7.98724,18.23837-19.71791,18.23837C68.77295,203.04617,60.89655,194.63271,60.89655,184.90918z
	 M95.70551,184.90918v-0.10138c0-8.00993-6.38828-14.5602-15.20081-14.5602s-15.09213,6.44888-15.09213,14.45979v0.1004
	c0,8.01091,6.38935,14.56117,15.20188,14.56117S95.70551,192.92009,95.70551,184.90918z"/>
<path class="st3" d="M109.43111,167.17474h16.57811c4.7366,0,8.53707,1.31004,10.96024,3.52661
	c1.87334,1.71262,2.97411,4.18114,2.97411,6.95282v0.1004c0,5.84454-4.40627,9.27077-10.46422,10.27766l11.84151,14.40959h-5.34239
	l-11.18084-13.70387h-11.0162v13.70387h-4.35031V167.17474z M125.62401,185.16115c5.78249,0,9.9133-2.7205,9.9133-7.25499v-0.10138
	c0-4.33273-3.63477-6.95284-9.85842-6.95284h-11.89746v14.3092H125.62401z"/>
<path class="st3" d="M160.00473,167.17474h13.43938l8.26161,12.39383l8.26161-12.39383h13.43939v35.26709H190.5742v-17.48245
	l-8.86848,12.54539h-0.2195l-8.86848-12.54539v17.48245h-12.61301V167.17474z"/>
<path class="st3" d="M207.82483,167.17474h32.88075v9.67332h-20.21288v3.57681h18.83665v8.51485h-18.83665v3.82878h20.48833v9.67332
	h-33.1562V167.17474z M224.84302,156.7455l12.72383,2.6201l-8.81253,5.79337h-9.19882L224.84302,156.7455z"/>
<path class="st3" d="M254.81532,184.50563l-12.50327-17.33089h14.65099l5.56296,8.41347l5.61786-8.41347h14.37552l-12.50323,17.1803
	l13.05417,18.08679h-14.65097l-6.11392-9.16937l-6.16876,9.16937h-14.37552L254.81532,184.50563z"/>
<path class="st3" d="M284.89737,167.17474h12.88846v35.26709h-12.88846V167.17474z"/>
<path class="st3" d="M301.4249,184.90918v-0.10138c0-10.52963,8.97717-18.38898,20.48834-18.38898
	c8.48221,0,14.21088,3.77858,17.46042,9.16939l-10.63098,5.69298c-1.43109-2.51872-3.46906-4.28253-6.99408-4.28253
	c-4.35138,0-7.21573,3.47643-7.21573,7.70874v0.1004c0,4.58469,2.97409,7.80913,7.21573,7.80913
	c3.63477,0,5.67273-1.813,7.26953-4.43311l10.63101,5.4912c-3.24957,5.2402-8.64792,9.52274-18.23087,9.52274
	C310.73239,203.19775,301.4249,195.84138,301.4249,184.90918z"/>
<path class="st3" d="M340.15485,184.90918v-0.10138c0-10.22746,9.19775-18.38898,21.09415-18.38898
	c11.89746,0,20.98544,8.06111,20.98544,18.28857v0.1004c0,10.22746-9.19882,18.38995-21.09521,18.38995
	C349.24176,203.19775,340.15485,195.13664,340.15485,184.90918z M369.23514,184.90918v-0.10138
	c0-4.18115-3.13873-7.95973-8.09592-7.95973c-4.90231,0-7.98615,3.72839-7.98615,7.85933v0.1004
	c0,4.18213,3.13873,7.96071,8.09592,7.96071C366.15128,192.76851,369.23514,189.04013,369.23514,184.90918z"/>
</svg>
